<svg xmlns="http://www.w3.org/2000/svg" xmlns:xlink="http://www.w3.org/1999/xlink" width="200" zoomAndPan="magnify" viewBox="109 118 178 132" height="200" preserveAspectRatio="xMidYMid meet" version="1.0"><defs><g/></defs><path fill="#00bf63" d="M 217.128906 167.597656 C 217.128906 167.597656 217.875 156.210938 213.617188 147.0625 L 240.640625 147.097656 C 243.386719 169.058594 233.894531 185.175781 215.320312 196.960938 C 237.585938 187.207031 247.933594 169.617188 244.578125 143.019531 L 207.019531 143.019531 L 210.746094 149.511719 L 197.871094 149.511719 C 197.871094 149.511719 209.46875 160.363281 212.339844 166.746094 C 212.339844 166.746094 211.171875 159.085938 206.914062 154.296875 L 213.085938 154.296875 C 213.085938 154.296875 216.382812 161.53125 217.128906 167.597656 Z M 217.128906 167.597656 " fill-opacity="1" fill-rule="nonzero"/><path fill="#00bf63" d="M 228.101562 156.167969 L 227.734375 156.167969 C 227.476562 156.167969 227.265625 156.195312 227.105469 156.25 C 226.9375 156.304688 226.816406 156.375 226.734375 156.457031 C 226.632812 156.558594 226.566406 156.691406 226.535156 156.859375 C 226.503906 157.03125 226.488281 157.183594 226.488281 157.320312 C 226.488281 157.496094 226.511719 157.636719 226.5625 157.753906 C 226.613281 157.867188 226.675781 157.960938 226.75 158.03125 C 226.820312 158.105469 226.898438 158.160156 226.980469 158.199219 C 227.0625 158.234375 227.136719 158.261719 227.199219 158.28125 L 228.105469 158.570312 L 228.105469 156.167969 Z M 228.101562 156.167969 " fill-opacity="1" fill-rule="nonzero"/><path fill="#00bf63" d="M 230.050781 162.835938 C 230.269531 162.804688 230.4375 162.738281 230.554688 162.636719 C 230.636719 162.5625 230.707031 162.460938 230.761719 162.328125 C 230.816406 162.199219 230.84375 162.035156 230.84375 161.84375 C 230.84375 161.578125 230.78125 161.328125 230.652344 161.097656 C 230.523438 160.863281 230.257812 160.683594 229.859375 160.554688 L 229.171875 160.335938 L 229.171875 162.882812 L 229.5 162.882812 C 229.648438 162.882812 229.828125 162.867188 230.050781 162.835938 Z M 230.050781 162.835938 " fill-opacity="1" fill-rule="nonzero"/><path fill="#00bf63" d="M 236.597656 159.507812 C 236.597656 155.101562 233.023438 151.53125 228.617188 151.53125 C 224.210938 151.53125 220.640625 155.101562 220.640625 159.507812 C 220.640625 163.917969 224.210938 167.488281 228.617188 167.488281 C 233.023438 167.488281 236.597656 163.917969 236.597656 159.507812 Z M 224.976562 164.324219 L 224.976562 162.882812 L 228.101562 162.882812 L 228.101562 159.992188 L 226.265625 159.402344 C 226.011719 159.320312 225.773438 159.222656 225.554688 159.109375 C 225.335938 158.996094 225.132812 158.789062 224.953125 158.488281 C 224.804688 158.238281 224.714844 157.984375 224.675781 157.726562 C 224.640625 157.464844 224.621094 157.226562 224.621094 157.007812 C 224.621094 156.722656 224.648438 156.4375 224.699219 156.148438 C 224.75 155.859375 224.875 155.601562 225.074219 155.375 C 225.203125 155.230469 225.347656 155.113281 225.507812 155.027344 C 225.667969 154.9375 225.832031 154.875 226 154.832031 C 226.167969 154.792969 226.335938 154.765625 226.503906 154.75 C 226.675781 154.738281 226.835938 154.730469 226.992188 154.730469 L 228.101562 154.730469 L 228.101562 153.800781 L 229.171875 153.800781 L 229.171875 154.730469 L 232.101562 154.730469 L 232.101562 156.167969 L 229.171875 156.167969 L 229.171875 158.910156 L 230.789062 159.429688 C 231.035156 159.511719 231.289062 159.609375 231.546875 159.71875 C 231.808594 159.828125 232.054688 160.035156 232.28125 160.335938 C 232.480469 160.601562 232.605469 160.863281 232.644531 161.125 C 232.683594 161.386719 232.707031 161.671875 232.707031 161.980469 C 232.707031 162.152344 232.703125 162.328125 232.691406 162.5 C 232.683594 162.675781 232.65625 162.84375 232.609375 163.007812 C 232.5625 163.171875 232.5 163.328125 232.410156 163.480469 C 232.324219 163.628906 232.203125 163.765625 232.050781 163.882812 C 231.910156 163.992188 231.761719 164.078125 231.597656 164.136719 C 231.433594 164.195312 231.261719 164.238281 231.089844 164.269531 C 230.917969 164.296875 230.742188 164.3125 230.570312 164.316406 C 230.394531 164.320312 230.230469 164.324219 230.074219 164.324219 L 229.171875 164.324219 L 229.171875 165.253906 L 228.101562 165.253906 L 228.101562 164.324219 Z M 224.976562 164.324219 " fill-opacity="1" fill-rule="nonzero"/><path fill="#00bf63" d="M 235.089844 118.703125 L 236.410156 129.691406 L 218.941406 122.261719 C 219.03125 122.472656 222.851562 131.136719 225.675781 140.058594 L 229.695312 140.058594 C 229.5 138.03125 229.121094 135.964844 228.460938 134 L 236.835938 137.566406 C 236.835938 137.566406 236.859375 138.507812 236.839844 140.058594 L 240.632812 140.058594 C 241.390625 136.246094 241.859375 132.125 241.722656 128.015625 L 278.382812 143.667969 C 270.484375 171.570312 252.1875 187.6875 225.859375 194.699219 C 222.476562 195.601562 218.964844 196.355469 215.316406 196.957031 C 217.828125 196.929688 220.28125 196.8125 222.671875 196.609375 C 254.472656 193.914062 276.074219 175.875 286.070312 140.382812 Z M 235.089844 118.703125 " fill-opacity="1" fill-rule="nonzero"/><path fill="#00bf63" d="M 255.640625 148.574219 C 255.292969 148.425781 254.992188 148.34375 254.738281 148.320312 C 254.480469 148.300781 254.277344 148.324219 254.117188 148.386719 C 253.921875 148.464844 253.753906 148.613281 253.617188 148.824219 C 253.472656 149.03125 253.367188 149.234375 253.285156 149.421875 C 253.183594 149.65625 253.136719 149.867188 253.140625 150.050781 C 253.140625 150.234375 253.171875 150.398438 253.230469 150.542969 C 253.285156 150.679688 253.359375 150.800781 253.453125 150.898438 C 253.539062 150.996094 253.625 151.078125 253.703125 151.140625 L 254.765625 152.054688 L 256.144531 148.785156 Z M 255.640625 148.574219 " fill-opacity="1" fill-rule="nonzero"/><path fill="#00bf63" d="M 254.179688 158.738281 C 254.375 158.824219 254.632812 158.90625 254.949219 158.988281 C 255.265625 159.074219 255.53125 159.082031 255.75 159.011719 C 255.90625 158.960938 256.058594 158.859375 256.207031 158.710938 C 256.359375 158.5625 256.488281 158.355469 256.597656 158.09375 C 256.75 157.734375 256.808594 157.359375 256.765625 156.964844 C 256.726562 156.578125 256.472656 156.175781 256 155.769531 L 255.195312 155.074219 L 253.726562 158.546875 Z M 254.179688 158.738281 " fill-opacity="1" fill-rule="nonzero"/><path fill="#00bf63" d="M 247.890625 158.375 C 247.753906 159.832031 247.570312 161.257812 247.328125 162.65625 C 248.210938 163.398438 249.210938 164.027344 250.328125 164.5 C 256.308594 167.042969 263.214844 164.242188 265.75 158.238281 C 268.285156 152.234375 265.496094 145.308594 259.511719 142.761719 C 255.445312 141.035156 250.957031 141.777344 247.703125 144.308594 C 248.148438 148.445312 248.265625 152.386719 248.054688 156.136719 L 252.277344 157.929688 L 253.941406 153.992188 L 251.789062 152.128906 C 251.488281 151.871094 251.222656 151.597656 250.988281 151.316406 C 250.757812 151.035156 250.605469 150.636719 250.53125 150.117188 C 250.476562 149.699219 250.496094 149.300781 250.597656 148.925781 C 250.695312 148.550781 250.808594 148.210938 250.9375 147.914062 C 251.101562 147.53125 251.296875 147.15625 251.53125 146.792969 C 251.765625 146.429688 252.085938 146.152344 252.488281 145.957031 C 252.746094 145.828125 253.007812 145.753906 253.277344 145.726562 C 253.542969 145.703125 253.804688 145.710938 254.054688 145.753906 C 254.308594 145.792969 254.554688 145.855469 254.789062 145.933594 C 255.03125 146.011719 255.253906 146.097656 255.464844 146.183594 L 256.96875 146.824219 L 257.507812 145.558594 L 258.957031 146.171875 L 258.421875 147.441406 L 262.402344 149.132812 L 261.574219 151.09375 L 257.59375 149.402344 L 256.019531 153.132812 L 257.910156 154.777344 C 258.199219 155.03125 258.488281 155.308594 258.777344 155.609375 C 259.070312 155.910156 259.28125 156.328125 259.417969 156.871094 C 259.539062 157.347656 259.550781 157.777344 259.460938 158.15625 C 259.367188 158.535156 259.230469 158.933594 259.046875 159.355469 C 258.949219 159.59375 258.84375 159.828125 258.730469 160.058594 C 258.617188 160.289062 258.484375 160.503906 258.328125 160.703125 C 258.171875 160.898438 257.992188 161.074219 257.785156 161.230469 C 257.582031 161.386719 257.339844 161.5 257.058594 161.570312 C 256.808594 161.640625 256.558594 161.667969 256.300781 161.65625 C 256.042969 161.640625 255.789062 161.601562 255.539062 161.542969 C 255.285156 161.476562 255.042969 161.398438 254.804688 161.304688 C 254.566406 161.210938 254.34375 161.121094 254.128906 161.03125 L 252.902344 160.507812 L 252.363281 161.777344 L 250.914062 161.160156 L 251.449219 159.890625 Z M 247.890625 158.375 " fill-opacity="1" fill-rule="nonzero"/><g fill="#000000" fill-opacity="1"><g transform="translate(109.649948, 195.15803)"><g><path d="M 12.296875 -3.1875 C 13.078125 -3.082031 13.847656 -2.953125 14.609375 -2.796875 C 15.378906 -2.648438 16.097656 -2.445312 16.765625 -2.1875 C 17.441406 -1.925781 18.039062 -1.582031 18.5625 -1.15625 C 19.09375 -0.726562 19.503906 -0.191406 19.796875 0.453125 C 20.097656 1.109375 20.25 1.90625 20.25 2.84375 C 20.25 4 20.015625 5.003906 19.546875 5.859375 C 19.085938 6.710938 18.445312 7.421875 17.625 7.984375 C 16.8125 8.546875 15.859375 8.96875 14.765625 9.25 C 13.671875 9.53125 12.488281 9.671875 11.21875 9.671875 C 9.21875 9.671875 7.503906 9.351562 6.078125 8.71875 C 4.648438 8.082031 3.554688 7.210938 2.796875 6.109375 C 2.046875 5.015625 1.671875 3.773438 1.671875 2.390625 C 1.671875 2.160156 1.679688 1.976562 1.703125 1.84375 C 1.722656 1.71875 1.738281 1.609375 1.75 1.515625 L 3.890625 -0.40625 C 3.285156 -0.8125 2.796875 -1.335938 2.421875 -1.984375 C 2.054688 -2.640625 1.875 -3.457031 1.875 -4.4375 C 1.875 -5.351562 2.039062 -6.148438 2.375 -6.828125 C 2.707031 -7.503906 3.175781 -8.109375 3.78125 -8.640625 C 3.25 -9.285156 2.832031 -10.003906 2.53125 -10.796875 C 2.226562 -11.597656 2.078125 -12.445312 2.078125 -13.34375 C 2.078125 -14.445312 2.296875 -15.457031 2.734375 -16.375 C 3.179688 -17.300781 3.796875 -18.097656 4.578125 -18.765625 C 5.359375 -19.429688 6.25 -19.941406 7.25 -20.296875 C 8.257812 -20.660156 9.332031 -20.84375 10.46875 -20.84375 C 11.351562 -20.84375 12.207031 -20.726562 13.03125 -20.5 C 13.851562 -20.28125 14.601562 -19.960938 15.28125 -19.546875 L 18.421875 -22.21875 L 21.015625 -19.046875 L 18.046875 -16.65625 C 18.628906 -15.601562 18.921875 -14.414062 18.921875 -13.09375 C 18.921875 -11.957031 18.703125 -10.929688 18.265625 -10.015625 C 17.835938 -9.097656 17.238281 -8.3125 16.46875 -7.65625 C 15.695312 -7.007812 14.804688 -6.507812 13.796875 -6.15625 C 12.796875 -5.8125 11.738281 -5.640625 10.625 -5.640625 C 9.914062 -5.640625 9.238281 -5.707031 8.59375 -5.84375 C 7.945312 -5.976562 7.332031 -6.175781 6.75 -6.4375 C 6.351562 -6.175781 6.15625 -5.816406 6.15625 -5.359375 C 6.15625 -4.796875 6.410156 -4.390625 6.921875 -4.140625 C 7.441406 -3.890625 8.164062 -3.703125 9.09375 -3.578125 C 10.019531 -3.460938 11.085938 -3.332031 12.296875 -3.1875 Z M 10.625 -16.984375 C 9.550781 -16.984375 8.71875 -16.640625 8.125 -15.953125 C 7.53125 -15.265625 7.234375 -14.382812 7.234375 -13.3125 C 7.234375 -12.269531 7.519531 -11.40625 8.09375 -10.71875 C 8.675781 -10.039062 9.519531 -9.703125 10.625 -9.703125 C 11.738281 -9.703125 12.578125 -10.039062 13.140625 -10.71875 C 13.703125 -11.40625 13.984375 -12.269531 13.984375 -13.3125 C 13.984375 -14.382812 13.695312 -15.265625 13.125 -15.953125 C 12.550781 -16.640625 11.71875 -16.984375 10.625 -16.984375 Z M 11.265625 5.75 C 12.554688 5.75 13.585938 5.546875 14.359375 5.140625 C 15.140625 4.734375 15.53125 4.164062 15.53125 3.4375 C 15.53125 2.925781 15.335938 2.546875 14.953125 2.296875 C 14.578125 2.046875 14.015625 1.851562 13.265625 1.71875 C 12.523438 1.59375 11.617188 1.46875 10.546875 1.34375 C 9.972656 1.28125 9.375 1.207031 8.75 1.125 C 8.125 1.039062 7.507812 0.929688 6.90625 0.796875 L 5.859375 2.515625 C 5.960938 3.234375 6.253906 3.832031 6.734375 4.3125 C 7.210938 4.789062 7.84375 5.148438 8.625 5.390625 C 9.414062 5.628906 10.296875 5.75 11.265625 5.75 Z M 11.265625 5.75 "/></g></g></g><g fill="#000000" fill-opacity="1"><g transform="translate(131.090613, 195.15803)"><g><path d="M 8.546875 0.40625 C 7.148438 0.40625 5.890625 0.148438 4.765625 -0.359375 C 3.648438 -0.878906 2.765625 -1.640625 2.109375 -2.640625 C 1.453125 -3.648438 1.125 -4.863281 1.125 -6.28125 C 1.125 -7.382812 1.332031 -8.3125 1.75 -9.0625 C 2.164062 -9.820312 2.738281 -10.425781 3.46875 -10.875 C 4.207031 -11.332031 5.070312 -11.664062 6.0625 -11.875 C 7.050781 -12.082031 8.117188 -12.1875 9.265625 -12.1875 L 14.578125 -12.1875 C 14.578125 -13.476562 14.234375 -14.519531 13.546875 -15.3125 C 12.867188 -16.101562 11.867188 -16.5 10.546875 -16.5 C 9.765625 -16.5 9.0625 -16.359375 8.4375 -16.078125 C 7.820312 -15.804688 7.289062 -15.453125 6.84375 -15.015625 C 6.40625 -14.585938 6.039062 -14.117188 5.75 -13.609375 L 1.921875 -16.375 C 2.578125 -17.269531 3.3125 -18.050781 4.125 -18.71875 C 4.945312 -19.382812 5.878906 -19.90625 6.921875 -20.28125 C 7.972656 -20.65625 9.164062 -20.84375 10.5 -20.84375 C 12.351562 -20.84375 13.9375 -20.484375 15.25 -19.765625 C 16.570312 -19.054688 17.582031 -18.0625 18.28125 -16.78125 C 18.976562 -15.507812 19.328125 -14.046875 19.328125 -12.390625 L 19.328125 0 L 15.234375 0 L 14.90625 -2.921875 C 14.03125 -1.640625 13.050781 -0.765625 11.96875 -0.296875 C 10.894531 0.171875 9.753906 0.40625 8.546875 0.40625 Z M 9.265625 -3.796875 C 9.972656 -3.796875 10.640625 -3.921875 11.265625 -4.171875 C 11.898438 -4.429688 12.457031 -4.785156 12.9375 -5.234375 C 13.425781 -5.679688 13.816406 -6.191406 14.109375 -6.765625 C 14.398438 -7.335938 14.554688 -7.941406 14.578125 -8.578125 L 9.546875 -8.578125 C 8.410156 -8.578125 7.570312 -8.328125 7.03125 -7.828125 C 6.5 -7.328125 6.234375 -6.753906 6.234375 -6.109375 C 6.234375 -5.441406 6.492188 -4.890625 7.015625 -4.453125 C 7.546875 -4.015625 8.296875 -3.796875 9.265625 -3.796875 Z M 9.265625 -3.796875 "/></g></g></g><g fill="#000000" fill-opacity="1"><g transform="translate(152.776547, 195.15803)"><g><path d="M 9.109375 0.40625 C 7.679688 0.40625 6.378906 0.148438 5.203125 -0.359375 C 4.035156 -0.878906 3.050781 -1.570312 2.25 -2.4375 C 1.457031 -3.300781 0.890625 -4.257812 0.546875 -5.3125 L 4.515625 -7.078125 C 4.703125 -6.585938 4.957031 -6.082031 5.28125 -5.5625 C 5.613281 -5.039062 6.066406 -4.601562 6.640625 -4.25 C 7.222656 -3.894531 7.96875 -3.71875 8.875 -3.71875 C 9.644531 -3.71875 10.269531 -3.84375 10.75 -4.09375 C 11.238281 -4.34375 11.597656 -4.660156 11.828125 -5.046875 C 12.066406 -5.429688 12.1875 -5.800781 12.1875 -6.15625 C 12.1875 -6.644531 12 -7.035156 11.625 -7.328125 C 11.257812 -7.617188 10.769531 -7.859375 10.15625 -8.046875 C 9.539062 -8.242188 8.867188 -8.429688 8.140625 -8.609375 C 7.410156 -8.785156 6.679688 -9 5.953125 -9.25 C 5.222656 -9.507812 4.550781 -9.851562 3.9375 -10.28125 C 3.332031 -10.707031 2.84375 -11.253906 2.46875 -11.921875 C 2.101562 -12.597656 1.921875 -13.453125 1.921875 -14.484375 C 1.921875 -15.566406 2.128906 -16.503906 2.546875 -17.296875 C 2.960938 -18.097656 3.523438 -18.757812 4.234375 -19.28125 C 4.941406 -19.8125 5.75 -20.203125 6.65625 -20.453125 C 7.570312 -20.710938 8.519531 -20.84375 9.5 -20.84375 C 11.257812 -20.84375 12.796875 -20.445312 14.109375 -19.65625 C 15.421875 -18.875 16.46875 -17.789062 17.25 -16.40625 L 13.390625 -14.3125 C 13.160156 -14.726562 12.867188 -15.132812 12.515625 -15.53125 C 12.171875 -15.925781 11.738281 -16.253906 11.21875 -16.515625 C 10.695312 -16.773438 10.070312 -16.90625 9.34375 -16.90625 C 8.519531 -16.90625 7.875 -16.726562 7.40625 -16.375 C 6.9375 -16.03125 6.703125 -15.617188 6.703125 -15.140625 C 6.703125 -14.703125 6.890625 -14.347656 7.265625 -14.078125 C 7.640625 -13.804688 8.132812 -13.570312 8.75 -13.375 C 9.375 -13.175781 10.050781 -12.972656 10.78125 -12.765625 C 11.519531 -12.566406 12.257812 -12.316406 13 -12.015625 C 13.738281 -11.710938 14.414062 -11.328125 15.03125 -10.859375 C 15.65625 -10.398438 16.15625 -9.8125 16.53125 -9.09375 C 16.90625 -8.375 17.09375 -7.472656 17.09375 -6.390625 C 17.09375 -5.210938 16.859375 -4.195312 16.390625 -3.34375 C 15.929688 -2.488281 15.316406 -1.78125 14.546875 -1.21875 C 13.773438 -0.664062 12.914062 -0.257812 11.96875 0 C 11.03125 0.269531 10.078125 0.40625 9.109375 0.40625 Z M 9.109375 0.40625 "/></g></g></g><g fill="#000000" fill-opacity="1"><g transform="translate(171.355731, 195.15803)"><g><path d="M 10.21875 0.40625 C 8.882812 0.40625 7.734375 0.160156 6.765625 -0.328125 C 5.804688 -0.816406 5.070312 -1.515625 4.5625 -2.421875 C 4.050781 -3.328125 3.796875 -4.398438 3.796875 -5.640625 L 3.796875 -16.25 L 0.515625 -16.25 L 0.515625 -20.421875 L 3.890625 -20.421875 L 3.890625 -25.484375 L 8.75 -29.046875 L 8.75 -20.421875 L 13.90625 -20.421875 L 13.90625 -16.25 L 8.75 -16.25 L 8.75 -6.515625 C 8.75 -5.535156 8.96875 -4.867188 9.40625 -4.515625 C 9.851562 -4.160156 10.40625 -3.984375 11.0625 -3.984375 C 11.570312 -3.984375 12.085938 -4.0625 12.609375 -4.21875 C 13.128906 -4.382812 13.5625 -4.550781 13.90625 -4.71875 L 13.90625 -0.203125 C 13.519531 -0.0664062 12.984375 0.0664062 12.296875 0.203125 C 11.617188 0.335938 10.925781 0.40625 10.21875 0.40625 Z M 10.21875 0.40625 "/></g></g></g><g fill="#000000" fill-opacity="1"><g transform="translate(186.766848, 195.15803)"><g><path d="M 11.46875 0.40625 C 9.707031 0.40625 8.179688 0.117188 6.890625 -0.453125 C 5.597656 -1.023438 4.519531 -1.804688 3.65625 -2.796875 C 2.800781 -3.796875 2.164062 -4.925781 1.75 -6.1875 C 1.332031 -7.445312 1.125 -8.765625 1.125 -10.140625 C 1.125 -11.472656 1.320312 -12.769531 1.71875 -14.03125 C 2.113281 -15.300781 2.71875 -16.453125 3.53125 -17.484375 C 4.351562 -18.515625 5.394531 -19.332031 6.65625 -19.9375 C 7.914062 -20.539062 9.410156 -20.84375 11.140625 -20.84375 C 12.566406 -20.84375 13.804688 -20.632812 14.859375 -20.21875 C 15.921875 -19.800781 16.816406 -19.238281 17.546875 -18.53125 C 18.285156 -17.820312 18.878906 -17.019531 19.328125 -16.125 C 19.785156 -15.238281 20.113281 -14.316406 20.3125 -13.359375 C 20.507812 -12.398438 20.609375 -11.460938 20.609375 -10.546875 C 20.609375 -10.117188 20.585938 -9.722656 20.546875 -9.359375 C 20.515625 -8.992188 20.472656 -8.734375 20.421875 -8.578125 L 6.390625 -8.578125 C 6.546875 -7.691406 6.816406 -6.910156 7.203125 -6.234375 C 7.585938 -5.566406 8.132812 -5.046875 8.84375 -4.671875 C 9.550781 -4.296875 10.4375 -4.109375 11.5 -4.109375 C 12.425781 -4.109375 13.296875 -4.269531 14.109375 -4.59375 C 14.929688 -4.925781 15.695312 -5.488281 16.40625 -6.28125 L 19.84375 -3.265625 C 18.726562 -2.023438 17.484375 -1.101562 16.109375 -0.5 C 14.734375 0.101562 13.1875 0.40625 11.46875 0.40625 Z M 6.390625 -12.1875 L 15.703125 -12.1875 C 15.535156 -13.644531 15.050781 -14.753906 14.25 -15.515625 C 13.445312 -16.273438 12.394531 -16.65625 11.09375 -16.65625 C 10.113281 -16.65625 9.304688 -16.460938 8.671875 -16.078125 C 8.035156 -15.691406 7.535156 -15.160156 7.171875 -14.484375 C 6.816406 -13.804688 6.554688 -13.039062 6.390625 -12.1875 Z M 6.390625 -12.1875 "/></g></g></g><g fill="#000000" fill-opacity="1"><g transform="translate(208.575417, 195.15803)"><g><path d="M 2.84375 -24.28125 L 2.84375 -28.875 L 8.03125 -28.875 L 8.03125 -24.28125 Z M 2.96875 0 L 2.96875 -20.421875 L 7.90625 -20.421875 L 7.90625 0 Z M 2.96875 0 "/></g></g></g></svg>